<?xml version="1.0" encoding="utf-8"?>
<!-- Generator: Adobe Illustrator 15.0.0, SVG Export Plug-In . SVG Version: 6.00 Build 0)  -->
<!DOCTYPE svg PUBLIC "-//W3C//DTD SVG 1.1//EN" "http://www.w3.org/Graphics/SVG/1.1/DTD/svg11.dtd">
<svg version="1.1" id="Layer_1" xmlns="http://www.w3.org/2000/svg" xmlns:xlink="http://www.w3.org/1999/xlink" x="0px" y="0px"
	 width="22px" height="27px" viewBox="0 0 22 27" enable-background="new 0 0 22 27" xml:space="preserve">
<path fill-rule="evenodd" clip-rule="evenodd" fill="#FFFFFF" d="M11.821,2.646c1.727-2.276,4.127-2.287,4.127-2.287
	s0.356,2.14-1.358,4.201c-1.832,2.201-3.914,1.841-3.914,1.841S10.285,4.67,11.821,2.646"/>
<path fill-rule="evenodd" clip-rule="evenodd" fill="#FFFFFF" d="M10.896,7.9c0.888,0,2.537-1.221,4.683-1.221
	c3.693,0,5.146,2.628,5.146,2.628s-2.842,1.453-2.842,4.98c0,3.977,3.54,5.348,3.54,5.348s-2.476,6.967-5.817,6.967
	c-1.535,0-2.729-1.035-4.348-1.035c-1.648,0-3.284,1.074-4.35,1.074C3.857,26.641,0,20.031,0,14.721
	c0-5.226,3.264-7.968,6.326-7.968C8.317,6.752,9.861,7.9,10.896,7.9"/>
</svg>
