<?xml version="1.0" encoding="utf-8"?>
<!-- Generator: Adobe Illustrator 15.0.0, SVG Export Plug-In . SVG Version: 6.00 Build 0)  -->
<!DOCTYPE svg PUBLIC "-//W3C//DTD SVG 1.1//EN" "http://www.w3.org/Graphics/SVG/1.1/DTD/svg11.dtd">
<svg version="1.1" id="Layer_1" xmlns="http://www.w3.org/2000/svg" xmlns:xlink="http://www.w3.org/1999/xlink" x="0px" y="0px"
	 width="30px" height="26px" viewBox="0 0 30 26" enable-background="new 0 0 30 26" xml:space="preserve">
<path fill="#FFFFFF" d="M6.115,1.297c0,0,5.884-3.201,10.919,0.656l-2.816,9.68c0,0-3.153-2.171-5.495-1.937
	c-2.342,0.234-5.424,1.355-5.424,1.355L6.115,1.297z"/>
<path fill="#FFFFFF" d="M2.802,12.757c0,0,3.158-1.469,5.781-1.282c2.622,0.188,4.716,1.6,5.167,1.924l-2.846,9.78
	c0,0-3.164-2.058-5.412-1.871C3.245,21.495,1.296,21.838,0,22.509L2.802,12.757z"/>
<path fill="#FFFFFF" d="M15.224,14.345c0,0,3.004,1.953,4.972,1.905c1.937-0.045,3.276-0.197,5.905-1.229
	c0.021-0.008,0.074-0.046,0.057-0.035c-0.057,0.035-2.816,9.694-2.816,9.694s-3.1,1.45-5.909,1.31
	c-2.809-0.141-4.497-1.746-5.011-1.951L15.224,14.345z"/>
<path fill="#FFFFFF" d="M18.523,2.974l-2.824,9.625c0,0,2.294,2.247,5.525,2.06c3.23-0.187,4.987-1.206,5.414-1.349l2.804-9.71
	c0,0-3.723,1.554-6.158,1.272C20.85,4.592,19.334,3.557,18.523,2.974"/>
</svg>
